<?xml version="1.0" encoding="UTF-8" standalone="no"?>
<!-- Created with Inkscape (http://www.inkscape.org/) -->

<svg
   xmlns:dc="http://purl.org/dc/elements/1.1/"
   xmlns:cc="http://creativecommons.org/ns#"
   xmlns:rdf="http://www.w3.org/1999/02/22-rdf-syntax-ns#"
   xmlns:svg="http://www.w3.org/2000/svg"
   xmlns="http://www.w3.org/2000/svg"
   xmlns:sodipodi="http://sodipodi.sourceforge.net/DTD/sodipodi-0.dtd"
   xmlns:inkscape="http://www.inkscape.org/namespaces/inkscape"
   width="95"
   height="95"
   viewBox="0 0 95 94.999992"
   id="svg2"
   version="1.1"
   inkscape:version="0.92.3 (2405546, 2018-03-11)"
   sodipodi:docname="marvel.svg">
  <defs
     id="defs4" />
  <sodipodi:namedview
     id="base"
     pagecolor="#ffffff"
     bordercolor="#666666"
     borderopacity="1.0"
     inkscape:pageopacity="0.0"
     inkscape:pageshadow="2"
     inkscape:zoom="0.5"
     inkscape:cx="688.84338"
     inkscape:cy="384.067"
     inkscape:document-units="px"
     inkscape:current-layer="layer1"
     showgrid="false"
     inkscape:window-width="1366"
     inkscape:window-height="705"
     inkscape:window-x="-8"
     inkscape:window-y="-8"
     inkscape:window-maximized="1"
     showguides="false"
     units="px" />
  <metadata
     id="metadata7">
    <rdf:RDF>
      <cc:Work
         rdf:about="">
        <dc:format>image/svg+xml</dc:format>
        <dc:type
           rdf:resource="http://purl.org/dc/dcmitype/StillImage" />
        <dc:title></dc:title>
      </cc:Work>
    </rdf:RDF>
  </metadata>
  <g
     inkscape:label="Layer 1"
     inkscape:groupmode="layer"
     id="layer1"
     transform="translate(0,-957.36195)">
    <path
       style="color:#000000;font-style:normal;font-variant:normal;font-weight:normal;font-stretch:normal;font-size:medium;line-height:normal;font-family:sans-serif;text-indent:0;text-align:start;text-decoration:none;text-decoration-line:none;text-decoration-style:solid;text-decoration-color:#000000;letter-spacing:normal;word-spacing:normal;text-transform:none;writing-mode:lr-tb;direction:ltr;baseline-shift:baseline;text-anchor:start;white-space:normal;clip-rule:nonzero;display:inline;overflow:visible;visibility:visible;opacity:1;isolation:auto;mix-blend-mode:normal;color-interpolation:sRGB;color-interpolation-filters:linearRGB;solid-color:#000000;solid-opacity:1;fill:#000000;fill-opacity:1;fill-rule:evenodd;stroke:none;stroke-width:1.36586106;stroke-linecap:butt;stroke-linejoin:miter;stroke-miterlimit:4;stroke-dasharray:none;stroke-dashoffset:0;stroke-opacity:1;color-rendering:auto;image-rendering:auto;shape-rendering:auto;text-rendering:auto;enable-background:accumulate"
       d="m 0,957.80965 v 0.7691 34.768 24.94165 c 0.4052211,-0.9501 0.83741476,-1.8241 1.2699789,-2.5909 4.1723117,-7.3972 7.3901305,-9.7802 9.8618791,-11.6932 2.471746,-1.9129 4.71711,-2.6639 5.574272,0.5438 0.857154,3.2079 2.9535,9.2858 -0.107259,12.0131 -3.060757,2.7273 -3.676707,-0.4426 -4.50192,-2.1556 -1.629195,1.2782 -4.9279742,6.3732 -6.0034857,9.1776 -1.0755116,2.8042 -0.3544,7.4751 2.3047831,7.4092 2.6591836,-0.066 5.6436556,-0.9675 8.3078816,-3.059 0.734654,-3.3151 1.192211,-9.2742 3.399184,-13.1885 2.206964,-3.9142 6.436302,-7.4747 9.634854,-7.1098 3.198551,0.3649 4.828405,1.9639 6.018383,6.072 0.906291,-4.5219 2.462889,-9.5668 2.462889,-9.5668 0,0 0.879874,-5.13369 3.461945,-5.16679 2.58208,-0.0337 2.699369,1.01344 3.001348,2.17529 0.339882,2.1714 0.554391,6.0131 1.273751,8.9505 1.21206,-2.4463 2.188656,-5.468 2.717515,-6.9107 0.718367,-2.0677 1.20838,-4.08841 3.88779,-4.41863 1.522728,-0.18764 2.652809,-0.0542 3.378923,0.88097 0.551578,0.71046 0.878601,2.02336 1.177423,3.45506 0.08771,-1.4385 0.430383,-2.0803 0.464765,-3.22653 0.07394,-2.46467 2.136751,-4.06863 3.608338,-4.5766 2.118762,-0.73127 3.917338,-1.90024 3.43056,4.28279 -0.486771,6.18304 -0.881036,10.47584 -1.07195,13.39204 1.79457,-4.4193 4.096859,-8.9371 6.694686,-11.8005 3.599782,-3.96759 5.024093,-4.84373 7.347942,-5.46648 2.323856,-0.62273 4.320126,1.3938 4.931149,7.06998 2.581819,-3.84162 6.143993,-7.00938 8.45584,-8.29329 0.577971,-0.32096 1.132926,-0.45905 1.652321,-0.45598 1.546096,0.009 2.776933,1.26564 3.366214,2.655 v -3.33968 -8.9523 h -5.588573 v -26.5848 h -7.419443 v 34.76803 h -1.145837 v -8.18323 h -6.324665 v -5.23955 h 6.324665 v -8.15149 h -6.324665 v -5.23983 h 6.324665 v -7.95393 H 69.459208 69.163057 63.014981 l -1.838231,17.82351 -1.241778,-17.82351 h -6.664488 l 3.74736,34.76803 h -2.164362 c -0.02206,0 -0.297591,-0.038 -0.662795,-0.54008 -0.380085,-0.52308 -0.817357,-1.57882 -0.703512,-3.86892 l 8.43e-4,-0.0235 v -6.09662 c 0,-0.954 -0.03856,-2.28323 -0.485424,-3.60666 -0.343276,-1.01668 -0.953701,-2.01119 -1.909331,-2.77527 0.839798,-0.87434 1.400287,-1.9876 1.742291,-3.17719 0.451773,-1.5714 0.554146,-3.27366 0.540648,-4.8723 -0.02342,-2.77473 -0.322366,-5.20779 -1.402266,-7.01003 -1.079889,-1.80225 -2.914045,-2.79701 -5.621734,-2.79701 h -7.831191 v 32.06094 L 33.554914,957.8101 h -7.388665 l -5.162131,33.32658 V 957.8101 H 13.433516 L 10.692363,971.89998 8.2731706,957.8101 Z m 69.163057,2.28487 v 32.48316 h -4.208556 z m -23.689997,5.80209 c 0.375521,0.0983 0.65569,0.4331 0.915041,0.93058 0.362088,0.69445 0.550173,1.69901 0.550173,2.05135 0,1.06379 -0.304808,1.94708 -0.701129,2.49068 -0.248286,0.34058 -0.50784,0.49378 -0.764085,0.56332 z m -15.611932,5.12851 0.998459,9.6168 h -1.997322 z m 15.611932,8.18693 c 0.545702,0.12218 1.002266,0.452 1.331942,0.95835 0.386619,0.59371 0.590898,1.36756 0.590898,1.86116 v 6.0892 c 0,1.10746 0.01524,2.44627 0.216294,3.59986 0.05196,0.29826 0.117112,0.58476 0.20299,0.85706 H 45.47306 Z m -30.563452,0.0397 v 13.32584 h -2.699241 z m -8.8147533,0 2.6986527,13.32277 H 6.0948547 Z m 22.0678743,8.14488 h 3.396404 l 0.534678,5.17789 H 27.628042 Z M 96,999.50689 c -0.433347,0.44777 -1.303773,0.54921 -2.243411,1.04991 -1.037541,0.5529 -3.431032,1.9321 -3.190828,3.4475 0.147376,0.9298 0.778921,1.1926 1.542078,1.2913 0.480642,0.062 0.98763,0.1072 1.528381,0.1164 0.617127,0.011 1.515772,-0.1578 2.36378,0.2222 z m -19.4016,4.31341 c -1.185928,0.8735 -3.421373,2.4119 -4.931133,5.7272 -1.509777,3.3151 -0.385111,6.5263 1.804261,6.0613 2.189365,-0.4652 3.16502,-1.5816 4.273306,-2.7903 1.108285,-1.2087 3.721044,-2.6913 3.204337,2.8547 -0.182502,1.9589 -1.862392,3.3597 -3.644278,4.9151 -1.781887,1.5554 -4.84971,2.3606 -7.039891,2.3489 -3.386173,-0.018 -6.275048,-3.6932 -6.971958,-5.5287 -0.282964,1.2018 0.06686,3.1523 -0.133271,4.4792 -0.128751,0.8539 -0.386897,1.4807 -0.959336,1.9081 -0.317187,0.2367 -0.713994,0.4813 -1.398087,1.0189 -2.80037,2.2007 -2.624245,-1.9889 -2.565971,-3.5503 0.05827,-1.5612 -0.58198,-12.6695 -1.116244,-15.0166 -0.425979,1.2885 -1.036429,12.7418 -1.034611,14.9273 0.0016,2.1853 -2.462308,2.9017 -3.941019,2.6799 -1.478712,-0.2219 -1.255326,-1.5312 -1.241776,-3.1275 0.01356,-1.5965 0.0098,-4.8638 -0.116783,-6.4098 -1.172195,2.1539 -1.817702,4.6654 -2.866687,6.8446 -0.675765,1.6073 -1.381559,2.4035 -2.579082,2.7684 -2.986131,0.91 -2.875309,-1.2719 -2.875621,-2.9577 -8.42e-4,-4.2509 0.12613,-4.4866 -0.383731,-6.0845 -1.0208,2.6981 -2.353018,8.6712 -2.863301,11.8214 -0.51029,3.1501 -1.499318,2.356 -2.46528,2.175 -0.965953,-0.181 -1.929389,-0.5436 -1.929389,-0.5436 0,0 -0.290291,-0.1067 -0.321567,0.1357 -0.377524,2.9261 -3.877903,8.3699 -8.576017,8.8383 -4.698114,0.4683 -5.256665,-0.3672 -8.184731,-3.5437 0.234264,3.2817 -0.189019,2.9094 -2.695672,4.8347 -2.506654,1.9253 -9.4478996,3.6592 -12.8101985,0.2044 C 1.5197558,1038.076 0.72091788,1037.2229 0,1036.0975 v 16.2646 h 41.738206 v -17.8744 l 6.261895,17.8429 6.261693,-17.8443 v 17.8758 H 96 v -34.8794 c -2.276775,2.837 -5.66907,4.7473 -7.457187,5.3643 -2.940843,1.0149 -5.04886,2.9748 -5.840817,-2.5191 -0.557205,-3.8655 0.918534,-4.7751 2.571327,-4.8476 0.709068,-0.031 1.455325,-0.3552 2.056715,-0.6789 2.028766,-1.0921 4.193911,-2.1564 4.145988,-3.8337 -0.01996,-0.6991 -0.665786,-1.0485 -2.357608,-0.978 -1.691833,0.071 -4.989837,0.4852 -5.968145,-0.6503 -0.978307,-1.1356 -0.920092,-1.7986 -1.267781,-3.5676 -0.757305,1.3605 -2.413962,1.4338 -3.405743,0.672 -0.99178,-0.7618 -1.18512,-1.574 -1.878349,-2.6235 z m -47.873179,11.9514 c -1.39408,0.083 -3.867503,2.7132 -4.568858,4.8197 -0.85078,3.1221 -1.497037,6.6991 0.737877,7.2856 2.234906,0.5865 4.590611,-2.6561 5.104733,-5.3822 0.417145,-2.3591 0.423916,-5.7854 -0.750393,-6.5938 -0.146787,-0.1012 -0.324209,-0.1412 -0.523359,-0.1293 z"
       id="path4136"
       inkscape:connector-curvature="0" />
    <path
       style="fill:#ff0000;fill-opacity:1;fill-rule:evenodd;stroke:none;stroke-width:0.34146526px;stroke-linecap:butt;stroke-linejoin:miter;stroke-opacity:1"
       d="m 0.60618946,958.57875 v 34.76772 22.21233 c 0.0568418,-0.1043 0.11386108,-0.2079 0.17081259,-0.3088 4.22229905,-7.4857 7.57572215,-9.9961 10.03885395,-11.9025 1.275445,-0.987 2.511411,-1.7291 3.695724,-1.7605 0.592151,-0.015 1.184319,0.1748 1.672967,0.6385 0.488657,0.4638 0.853162,1.1685 1.095596,2.0758 0.417709,1.5633 1.178485,3.9311 1.441979,6.3273 0.263496,2.3963 -0.01785,4.9958 -1.774871,6.5614 -0.818232,0.7292 -1.518316,1.1138 -2.170317,1.1913 -0.652008,0.078 -1.234904,-0.2042 -1.652125,-0.6384 -0.600733,-0.6251 -0.928372,-1.4277 -1.211782,-2.1392 -0.69963,0.7196 -1.628791,1.8826 -2.5582227,3.3087 -1.1417601,1.7517 -2.2220632,3.718 -2.7163285,5.0068 -0.4565052,1.1902 -0.541162,2.9094 -0.2149053,4.212 0.1631242,0.6512 0.4203875,1.1901 0.7414484,1.5473 0.3210611,0.357 0.697339,0.5583 1.2217095,0.5453 2.4916546,-0.061 5.2837556,-0.9093 7.7900796,-2.8053 0.67291,-3.223 1.138964,-9.0479 3.435327,-13.1207 1.159494,-2.0564 2.8184,-3.98 4.623873,-5.3695 1.805483,-1.3896 3.760076,-2.2642 5.558383,-2.059 1.668827,0.1905 3.012379,0.7194 4.084229,1.7944 0.718947,0.721 1.265835,1.7575 1.755199,2.9444 0.901617,-3.9178 2.001077,-7.6749 2.014206,-7.7174 0.02232,-0.1275 0.241213,-1.355 0.80123,-2.6836 0.589609,-1.39883 1.620824,-2.98182 3.227975,-3.00243 1.355704,-0.0172 2.185777,0.2345 2.744733,0.81195 0.558946,0.57742 0.697229,1.34758 0.838568,1.89128 l 0.01196,0.045 0.0067,0.046 c 0.281483,1.7982 0.484404,4.5226 0.889617,6.9722 0.817769,-1.9454 1.531823,-3.9454 1.95184,-5.0924 0.350299,-1.0083 0.663613,-2.1102 1.304539,-3.05296 0.640919,-0.94275 1.625322,-1.64238 3.08,-1.82163 1.578999,-0.19461 2.942703,-0.0868 3.869314,1.10721 0.22837,0.29413 0.404834,0.64515 0.562096,1.01758 0.0087,-0.093 0.03891,-0.18047 0.04193,-0.27844 0.04497,-1.49754 0.697035,-2.71118 1.491233,-3.57674 0.794206,-0.86556 1.741618,-1.42933 2.564185,-1.7133 0.511167,-0.17644 1.026712,-0.39113 1.539108,-0.52046 0.512396,-0.12931 1.051697,-0.1937 1.569894,0.11486 0.518198,0.30857 0.881171,0.99344 1.039175,1.88088 0.158005,0.88735 0.169668,2.03633 0.04447,3.62627 -0.351241,4.46143 -0.558948,6.96663 -0.771638,9.64463 1.54704,-3.3229 3.361702,-6.4698 5.393727,-8.7095 3.626207,-3.99682 5.2329,-4.99884 7.620252,-5.63867 1.325811,-0.35523 2.671301,0.0814 3.669298,1.39035 0.814998,1.06904 1.400909,2.68409 1.765339,4.82872 2.539158,-3.41674 5.636681,-6.17385 7.834568,-7.39446 0.65008,-0.36102 1.291899,-0.52389 1.898013,-0.52046 1.086863,0.009 2.02895,0.53131 2.756841,1.29983 v -1.216 -8.18286 H 89.804653 V 958.57869 H 83.59778 v 34.76772 h -2.358609 v -8.18286 h -6.324692 v -6.77804 h 6.324666 v -6.61286 h -6.324666 v -6.77777 h 6.324666 v -6.41577 H 69.769053 v 34.76772 h -5.529382 l 4.504902,-34.76772 h -5.197684 l -2.487125,24.11805 -1.680126,-24.11805 h -5.414383 l 3.747367,34.76772 h -2.923089 c 0,0 -2.149954,-0.35785 -1.907942,-5.2259 v -6.07264 c 0,-1.84715 -0.172985,-4.86407 -2.970963,-6.29485 2.442164,-1.66817 2.885701,-5.0302 2.859536,-8.12834 -0.04573,-5.41125 -1.225768,-9.04599 -6.418013,-9.04599 h -7.224799 v 34.76772 h -0.685836 l -5.385382,-34.76772 h -6.390795 l -5.385382,34.76772 h -0.882474 v -34.76772 h -6.489112 l -3.253003,16.72061 -2.870846,-16.72061 z m 44.59277454,6.5138 c 1.604834,-0.0272 2.345306,2.68692 2.345306,3.78572 0,2.49411 -1.405508,4.26375 -2.677803,3.83139 v -7.57406 c 0.114712,-0.0272 0.225508,-0.0416 0.332497,-0.0434 z m -15.338037,0.0434 1.690653,16.27548 h -3.381306 z m -24.3726576,8.03383 4.0872,20.17704 h -4.0872 z m 10.0275286,0 v 20.17704 h -4.087402 z m 29.533406,5.18014 c 0.06013,0 0.119504,0 0.177963,0 1.753726,0.0841 2.774922,2.23412 2.774922,3.68045 v 6.08911 c 0,2.1889 0.08722,5.2259 1.353195,5.2259 h -1.355579 -3.133238 v -14.98406 c 0.06164,-0.009 0.122602,-0.0108 0.182737,-0.0127 z m -17.418383,8.28063 h 4.460412 l 0.693979,6.71627 h -5.848563 z m 67.762392,14.06225 c -0.01011,0 -0.02029,0.01 -0.03039,0.011 -0.439047,0.1673 -0.90618,0.3137 -1.371477,0.5617 -0.506265,0.2698 -1.33648,0.743 -1.967924,1.2888 -0.315723,0.2729 -0.577533,0.5668 -0.72059,0.8096 -0.143023,0.2428 -0.161002,0.3735 -0.142813,0.4883 0.04286,0.2704 0.09489,0.3327 0.24331,0.4388 0.148437,0.1061 0.421339,0.1943 0.765676,0.2388 0.467325,0.06 0.955915,0.1037 1.475157,0.1126 0.38214,0.01 1.027757,-0.1034 1.749044,0.02 z m -18.956295,4.1437 c -1.227731,0.9102 -2.982425,2.3245 -4.244708,5.0962 -0.679839,1.4928 -0.726526,2.8927 -0.44709,3.7772 0.279436,0.8845 0.772362,1.3223 1.626105,1.141 2.062367,-0.4381 2.863494,-1.3996 3.978359,-2.6155 0.63984,-0.6977 1.618711,-1.5374 2.717516,-1.2781 0.549406,0.1295 1.07354,0.6726 1.320623,1.4833 0.247089,0.8105 0.299266,1.8659 0.163469,3.3235 -0.11472,1.2312 -0.690813,2.2272 -1.410005,3.0804 -0.719199,0.8531 -1.604825,1.6029 -2.49248,2.3778 -1.96917,1.7189 -5.076757,2.497 -7.386485,2.4847 -1.865312,-0.01 -3.545633,-1.0144 -4.851291,-2.2331 -0.630982,-0.5889 -1.165424,-1.2214 -1.607631,-1.8424 0.02712,0.7782 0.07141,1.6092 -0.04809,2.4012 -0.146561,0.9719 -0.52006,1.8834 -1.247133,2.4262 -0.350283,0.2614 -0.721474,0.4876 -1.386367,1.0102 -0.770906,0.6058 -1.43307,0.8641 -2.043604,0.6894 -0.610544,-0.1747 -1.004228,-0.8069 -1.195696,-1.4271 -0.382923,-1.2402 -0.280633,-2.7264 -0.251647,-3.503 0.01053,-0.2809 -0.01491,-1.3042 -0.0747,-2.5935 -0.0598,-1.2894 -0.150451,-2.8924 -0.25979,-4.5187 -0.04505,-0.67 -0.104875,-1.27 -0.157112,-1.9339 -0.03014,0.4437 -0.06399,0.799 -0.09235,1.2535 -0.204883,3.2858 -0.355654,6.7379 -0.354736,7.7384 5.73e-4,0.7297 -0.220185,1.3871 -0.555344,1.877 -0.335157,0.4898 -0.769726,0.8311 -1.232437,1.0765 -0.925423,0.4908 -1.977136,0.6193 -2.831132,0.4912 -0.440539,-0.066 -0.815612,-0.2221 -1.114055,-0.5079 -0.298443,-0.2858 -0.486813,-0.6945 -0.577389,-1.089 -0.181147,-0.7892 -0.0916,-1.547 -0.08521,-2.3021 0.0076,-0.8828 -0.04193,-2.195 -0.06332,-3.525 -0.558425,1.4317 -1.097971,2.9082 -1.785995,4.3428 -0.718131,1.7014 -1.629441,2.7341 -2.965196,3.1411 -0.799234,0.2436 -1.431529,0.3002 -1.968329,0.1652 -0.5368,-0.1348 -0.974973,-0.5072 -1.23184,-0.9847 -0.513735,-0.955 -0.423351,-2.0642 -0.423452,-2.8857 -4.8e-4,-1.7685 0.0092,-2.5786 -5.82e-4,-3.3114 -0.81136,2.911 -1.671099,6.8886 -2.045987,9.203 -0.136354,0.8417 -0.306881,1.4629 -0.544219,1.9463 -0.237331,0.4834 -0.573221,0.8262 -0.929736,0.9688 -0.713026,0.2852 -1.288402,-0.061 -1.674172,-0.1338 -0.86208,-0.1615 -1.451402,-0.3893 -1.694821,-0.4776 -0.350762,1.6446 -1.296867,3.5267 -2.721692,5.2116 -1.587706,1.8777 -3.753911,3.4502 -6.274207,3.7014 -2.379014,0.2373 -3.800656,0.1583 -5.026475,-0.4557 -0.894047,-0.4479 -1.683454,-1.2324 -2.578485,-2.1881 -0.0051,0.087 0.01255,0.2173 0.0042,0.3006 -0.05667,0.5636 -0.22389,1.0783 -0.497541,1.4699 -0.547311,0.783 -1.289946,1.1142 -2.515529,2.0555 -1.396463,1.0726 -3.795529,1.9787 -6.3518653,2.2295 -2.5563369,0.2508 -5.2759916,-0.155 -7.1542906,-2.0851 -0.3918989,-0.4027 -0.8175157,-0.8543 -1.24673682,-1.3729 v 13.5575 H 41.13147 v -20.7247 l 6.868286,19.5712 6.868278,-19.5712 v 20.7247 h 40.52523 v -32.4045 c -0.109164,0.1114 -0.218999,0.2216 -0.330107,0.3288 -2.209481,2.1314 -4.793406,3.5314 -6.361204,4.0724 -1.410399,0.4867 -2.659149,1.2955 -3.918567,1.2068 -0.629719,-0.044 -1.273676,-0.4107 -1.725019,-1.1393 -0.451336,-0.7286 -0.745289,-1.7497 -0.952986,-3.1905 -0.297137,-2.0614 -0.06568,-3.5482 0.601229,-4.497 0.666889,-0.9486 1.637996,-1.2181 2.54571,-1.258 0.578307,-0.026 1.271276,-0.3115 1.840622,-0.618 1.020582,-0.5493 2.052515,-1.087 2.772531,-1.6457 0.36,-0.2794 0.637601,-0.5638 0.799444,-0.8142 0.158999,-0.246 0.205289,-0.4242 0.201399,-0.6265 -0.0059,-0.01 -0.03259,-0.043 -0.141415,-0.091 -0.24059,-0.1063 -0.776059,-0.1915 -1.586577,-0.1577 -0.819857,0.035 -2.083435,0.158 -3.283782,0.1274 -1.200344,-0.031 -2.346955,-0.09 -3.113573,-0.9791 -0.536927,-0.6233 -0.850173,-1.2191 -1.031023,-1.8516 -0.07654,-0.2676 -0.123908,-0.6075 -0.175984,-0.8878 -0.373271,0.2715 -0.78422,0.4397 -1.196092,0.5004 -0.765886,0.1127 -1.544043,-0.082 -2.175285,-0.5664 -0.562653,-0.4321 -0.932547,-0.9198 -1.218534,-1.3941 -0.178881,-0.2966 -0.343537,-0.5836 -0.507083,-0.8713 z m -47.683099,11.7034 c -0.414155,0.024 -1.360858,0.6022 -2.184623,1.4738 -0.82059,0.868 -1.559865,2.007 -1.84875,2.8662 -0.413036,1.5214 -0.755427,3.1352 -0.745626,4.2977 0.0051,0.5859 0.09599,1.0349 0.249273,1.3324 0.153288,0.2975 0.359807,0.5008 0.793086,0.6144 0.858913,0.2253 1.824774,-0.2917 2.665887,-1.2641 0.839898,-0.971 1.502702,-2.3686 1.724614,-3.5392 0.194459,-1.102 0.293643,-2.4905 0.208943,-3.6321 -0.08482,-1.1431 -0.386198,-1.9247 -0.657229,-2.1113 -0.02559,-0.017 -0.08718,-0.045 -0.205575,-0.038 z"
       id="path4202"
       inkscape:connector-curvature="0" />
  </g>
</svg>
