<?xml version="1.0" encoding="UTF-8" standalone="no"?>
<svg
   xmlns:dc="http://purl.org/dc/elements/1.1/"
   xmlns:cc="http://creativecommons.org/ns#"
   xmlns:rdf="http://www.w3.org/1999/02/22-rdf-syntax-ns#"
   xmlns:svg="http://www.w3.org/2000/svg"
   xmlns="http://www.w3.org/2000/svg"
   xmlns:sodipodi="http://sodipodi.sourceforge.net/DTD/sodipodi-0.dtd"
   xmlns:inkscape="http://www.inkscape.org/namespaces/inkscape"
   width="95"
   height="95"
   viewBox="0 0 7.324728 7.324728"
   version="1.1"
   id="svg62"
   sodipodi:docname="sims.svg"
   inkscape:version="0.92.3 (2405546, 2018-03-11)">
  <metadata
     id="metadata68">
    <rdf:RDF>
      <cc:Work
         rdf:about="">
        <dc:format>image/svg+xml</dc:format>
        <dc:type
           rdf:resource="http://purl.org/dc/dcmitype/StillImage" />
        <dc:title></dc:title>
      </cc:Work>
    </rdf:RDF>
  </metadata>
  <defs
     id="defs66" />
  <sodipodi:namedview
     pagecolor="#ffffff"
     bordercolor="#666666"
     borderopacity="1"
     objecttolerance="10"
     gridtolerance="10"
     guidetolerance="10"
     inkscape:pageopacity="0"
     inkscape:pageshadow="2"
     inkscape:window-width="1366"
     inkscape:window-height="705"
     id="namedview64"
     showgrid="false"
     inkscape:zoom="0.60641478"
     inkscape:cx="669.39846"
     inkscape:cy="107.24566"
     inkscape:window-x="-8"
     inkscape:window-y="-8"
     inkscape:window-maximized="1"
     inkscape:current-layer="svg62" />
  <g
     id="g60"
     style="clip-rule:evenodd;fill-rule:evenodd"
     transform="matrix(0.03683133,0,0,0.03658557,0.13206346,0.11620033)">
    <path
       d="M 0,0 H 192.756 V 192.756 H 0 Z"
       id="path40"
       inkscape:connector-curvature="0"
       style="fill:#ffffff;fill-opacity:0" />
    <path
       d="m 142.635,56.87 c 0.07,-0.141 0.07,-0.211 0.07,-0.352 0.07,-0.351 0.141,-0.632 0.281,-0.914 a 3.572,3.572 0 0 1 1.195,-1.688 c 0.281,-0.984 0.844,-1.828 1.688,-2.53 0.844,-0.703 2.039,-1.195 3.443,-1.406 0.354,-0.07 0.773,-0.07 1.055,-0.07 0.773,0 1.477,0.07 2.18,0.281 0.703,-0.492 1.617,-0.703 2.602,-0.703 h 0.07 c 0.281,0 0.633,0 0.984,0.07 0.281,0.07 0.633,0.211 0.914,0.281 v 0.07 c 1.686,0.703 2.883,2.25 2.953,4.007 v 0.211 c 0,1.265 -0.564,2.39 -1.477,3.234 a 5.378,5.378 0 0 1 -2.25,1.195 c -0.914,1.054 -2.391,1.898 -4.148,2.109 l -0.07,2.179 h -0.633 l -0.07,1.547 -0.07,1.406 v 0.844 l -0.281,6.749 v 0.351 l 4.078,3.234 1.266,0.984 -0.352,1.546 -1.055,4.639 -0.844,4.218 c 0.773,-1.055 1.688,-1.968 2.742,-2.882 4.92,-4.288 12.652,-7.1 19.473,-8.014 l 1.828,-0.211 0.773,1.617 3.725,7.733 1.547,3.093 -3.445,0.562 c -0.281,0 -0.562,0.07 -0.914,0.141 -0.281,0.07 -0.561,0.07 -0.982,0.211 a 23.733,23.733 0 0 0 -4.289,1.195 c -0.562,0.211 -1.055,0.422 -1.617,0.633 -0.492,0.211 -0.984,0.492 -1.336,0.703 -1.828,0.984 -3.021,1.969 -3.162,3.023 -0.141,0.492 0.07,1.195 0.422,1.969 0.561,1.124 1.545,2.319 2.811,3.655 l 0.07,0.07 c 0.773,0.844 1.828,1.757 2.812,2.671 4.359,4.008 8.998,8.226 8.998,15.607 0,1.546 -0.352,2.952 -0.914,4.358 -0.562,1.335 -1.336,2.53 -2.32,3.655 -4.639,5.132 -13.566,8.154 -20.598,9.279 l -1.545,0.211 -0.914,-1.336 -1.617,-2.319 2.18,11.178 0.562,3.022 h -20.458 l -0.352,-2.109 -2.602,-14.06 -5.414,13.217 -0.633,1.616 h -7.101 l -0.633,-1.616 -5.271,-12.865 -2.391,13.708 -0.352,2.109 H 93.074 l 0.562,-2.952 1.336,-7.804 H 79.436 V 78.24 h 2.671 C 81.755,77.959 81.474,77.678 81.123,77.396 79.225,75.498 78.1,72.897 78.1,70.015 c 0,-2.882 1.125,-5.483 3.023,-7.381 1.898,-1.898 4.499,-3.023 7.381,-3.023 2.882,0 5.483,1.125 7.381,3.023 1.827,1.898 3.022,4.499 3.022,7.381 0,0.844 -0.141,1.617 -0.281,2.39 l 4.43,-2.601 v -0.492 l 1.266,-0.773 5.482,-3.375 v -0.492 l 1.266,-0.774 6.117,-3.866 V 59.61 l 1.264,-0.773 7.805,-4.781 1.477,-0.984 1.404,1.125 7.242,5.764 1.053,0.773 -0.07,0.633 2.812,2.249 0.07,-1.265 h -0.633 l 0.07,-2.32 0.07,-0.984 0.07,-2.32 2.32,0.07 z m 11.529,31.494 -3.305,-2.812 -5.482,-4.71 8.506,43.938 h 0.351 c 0.703,0 2.391,-0.281 4.289,-0.844 a 5.2,5.2 0 0 0 0.982,-0.281 c 1.617,-0.492 3.305,-1.125 4.5,-1.828 0.844,-0.492 1.406,-0.984 1.688,-1.405 0.211,-0.422 0.281,-0.844 0.281,-1.266 v -0.141 c -0.141,-2.18 -3.656,-5.344 -6.469,-7.874 -1.264,-1.124 -2.459,-2.179 -3.373,-3.233 -2.883,-3.375 -4.43,-6.679 -4.852,-9.701 -0.352,-2.531 0.141,-4.921 1.125,-7.101 0.493,-0.985 1.056,-1.899 1.759,-2.742 z m -11.318,-9.772 -7.592,-6.538 -0.07,1.406 v 0.843 l -0.07,1.195 -0.141,4.358 -0.07,2.039 -2.039,-0.07 -6.889,-0.281 -0.844,-0.07 h -1.195 l -5.203,-0.211 -2.039,-0.141 0.07,-2.039 0.141,-4.358 0.072,-1.195 v -0.773 l 0.07,-1.054 -6.258,4.007 h 2.883 l 0.633,1.546 11.318,26.644 11.387,-23.832 0.705,-1.476 z m -37.75,0.844 -3.375,2.179 -3.375,2.179 -0.562,-4.007 -0.562,-4.147 c -0.42,0.633 -0.843,1.195 -1.335,1.757 -0.281,0.282 -0.632,0.563 -0.914,0.844 h 2.6 v 44.148 z M 71.633,60.807 70.789,59.19 68.961,59.4 c -9.912,1.336 -21.02,5.413 -28.19,11.6 -2.812,2.32 -4.991,5.062 -6.397,8.014 -1.476,3.093 -2.109,6.467 -1.617,10.123 0.562,4.359 2.741,8.858 6.889,13.779 1.266,1.477 3.023,3.022 4.921,4.71 4.429,4.007 9.913,8.928 10.053,12.795 v 0.14 c 0,0.844 -0.211,1.688 -0.633,2.531 -0.562,0.844 -1.477,1.688 -2.883,2.601 -1.968,1.125 -4.499,2.109 -7.03,2.883 -0.562,0.141 -1.054,0.281 -1.477,0.422 -2.953,0.773 -5.553,1.195 -6.749,1.195 H 31 l 2.742,4.007 7.733,11.317 0.914,1.336 1.617,-0.211 c 10.194,-1.616 23.27,-6.045 29.877,-13.497 1.406,-1.547 2.46,-3.233 3.304,-5.062 a 15.975,15.975 0 0 0 1.195,-6.046 c 0,-10.404 -6.678,-16.591 -13.005,-22.425 -1.476,-1.406 -2.953,-2.742 -4.288,-4.007 v -0.07 C 59.05,93.496 57.574,91.528 56.73,89.77 c -0.773,-1.476 -1.054,-2.742 -0.843,-3.867 0.351,-1.968 2.25,-3.796 5.342,-5.413 a 29.155,29.155 0 0 1 2.109,-1.054 25.388,25.388 0 0 1 2.461,-0.984 c 2.038,-0.773 4.288,-1.406 6.607,-1.898 0.562,-0.141 0.984,-0.211 1.406,-0.281 0.562,-0.141 1.055,-0.211 1.476,-0.281 l 3.375,-0.562 -1.477,-3.093 z m -57.857,46.678 h 9.771 v -0.844 h 8.296 v 4.077 c 0.632,-0.141 1.265,-0.141 1.898,-0.07 0.422,0.07 0.773,0.141 1.125,0.211 0.352,0.141 0.703,0.281 1.054,0.492 0.703,0.352 1.266,0.844 1.757,1.477 0.071,-0.07 0.071,-0.07 0.141,-0.07 1.335,-1.336 3.233,-2.109 5.202,-2.109 0.281,0 0.492,0.07 0.633,0.07 2.108,0.141 3.796,1.055 4.991,2.602 1.054,1.405 1.616,3.304 1.616,5.483 0,0.913 0,1.617 -0.14,2.671 h -0.633 l 0.211,0.703 0.211,0.984 -0.633,0.703 c -0.773,0.914 -1.757,1.546 -2.812,1.827 a 8.663,8.663 0 0 1 -2.953,0.492 H 43.3 c -1.687,-0.07 -3.163,-0.562 -4.429,-1.405 v 0.983 H 15.323 v -10.686 h -3.374 v -7.592 h 1.827 z m 114.095,-41.757 -0.703,-0.633 -0.912,0.562 h 0.279 z"
       id="path42"
       inkscape:connector-curvature="0"
       style="fill:#d0d1d3" />
    <path
       d="m 9.207,102.564 h 10.896 v -0.211 a 0.63,0.63 0 0 1 0.633,-0.633 h 8.295 a 0.63,0.63 0 0 1 0.633,0.633 v 3.304 h 0.352 c 0.351,0 0.632,0 0.984,0.07 h 0.07 c 0.281,0 0.562,0.07 0.844,0.141 0.07,0 0.07,0 0.211,0.07 h 0.141 v 0.07 c 0.281,0.07 0.562,0.141 0.843,0.281 0.07,0.07 0.141,0.07 0.141,0.07 0.071,0.07 0.141,0.07 0.211,0.07 0.351,0.211 0.703,0.492 1.054,0.773 0.141,0.07 0.352,0.211 0.493,0.422 0.492,-0.492 1.125,-0.844 1.687,-1.125 0.211,-0.07 0.352,-0.141 0.492,-0.211 0.984,-0.352 2.039,-0.562 3.093,-0.562 h 0.632 c 1.687,0.141 3.093,0.703 4.218,1.617 0.211,0.211 0.421,0.352 0.632,0.562 0.211,0.21 0.352,0.422 0.562,0.633 v 0.07 a 8.19,8.19 0 0 1 1.195,2.179 c 0.07,0.141 0.14,0.281 0.21,0.492 0.282,0.984 0.422,2.039 0.422,3.234 v 1.335 c -0.07,0.352 -0.07,0.844 -0.211,1.406 0,0.211 -0.211,0.422 -0.421,0.492 l 0.281,0.914 c 0,0.141 -0.07,0.492 -0.141,0.562 l -0.632,0.773 a 6.772,6.772 0 0 1 -2.18,1.616 c -0.21,0.141 -0.351,0.211 -0.492,0.211 l -0.422,0.211 h -0.07 0.07 -0.07 c -0.493,0.141 -1.055,0.281 -1.617,0.352 -0.492,0.07 -1.055,0.141 -1.547,0.141 H 40.49 c -1.265,-0.07 -2.46,-0.352 -3.515,-0.844 -0.07,-0.07 -0.141,-0.07 -0.211,-0.141 -0.07,0.281 -0.352,0.562 -0.633,0.562 H 12.51 c -0.281,0 -0.633,-0.352 -0.633,-0.633 v -10.123 h -2.67 c -0.352,0 -0.703,-0.281 -0.703,-0.633 v -7.522 c 0,-0.346 0.351,-0.628 0.703,-0.628 z M 149.031,86.536 c 0.424,-0.844 0.844,-1.617 1.406,-2.32 l -2.74,-2.46 -4.148,-3.515 8.084,41.546 c 0.562,0 1.406,-0.14 2.461,-0.351 0.141,-0.07 0.422,-0.141 0.703,-0.211 0.211,-0.07 0.492,-0.141 0.773,-0.211 0.141,0 0.281,-0.07 0.492,-0.141 0.141,0 0.281,-0.07 0.422,-0.07 1.195,-0.422 2.389,-0.773 3.373,-1.266 0.143,-0.07 0.352,-0.141 0.562,-0.281 0.141,-0.07 0.281,-0.141 0.492,-0.281 0.352,-0.211 0.703,-0.422 0.914,-0.633 0.211,-0.211 0.422,-0.422 0.492,-0.633 a 0.539,0.539 0 0 0 0.141,-0.352 c 0.07,-0.141 0.07,-0.352 0.07,-0.562 v -0.07 c -0.07,-1.827 -3.305,-4.709 -5.904,-7.17 -0.141,-0.07 -0.211,-0.141 -0.352,-0.211 -0.633,-0.633 -1.266,-1.125 -1.828,-1.688 -0.562,-0.563 -1.125,-1.055 -1.617,-1.616 -2.109,-2.531 -3.586,-4.992 -4.359,-7.312 -0.139,-0.422 -0.279,-0.844 -0.35,-1.265 -0.141,-0.422 -0.211,-0.915 -0.281,-1.336 -0.141,-1.406 -0.141,-2.671 0.07,-3.937 0.212,-1.264 0.632,-2.459 1.124,-3.654 z M 95.464,80.068 v 30.721 l 5.975,-34.306 -2.18,1.336 -3.233,2.179 c -0.211,0.141 -0.421,0.141 -0.562,0.07 z m 37.259,-2.6 0.914,-1.898 0.703,-1.477 c 0.07,-0.211 0.352,-0.421 0.562,-0.421 h 3.373 l -5.201,-4.499 v 0.07 l -0.07,0.773 -0.07,1.266 -0.141,4.358 z m -18.629,0.07 8.787,20.527 9.49,-19.825 c -0.141,0 -0.211,0.07 -0.352,0.07 l -2.039,-0.07 -6.818,-0.351 h -0.844 l -1.266,-0.07 -5.201,-0.211 z m -3.938,-6.679 h 0.703 c 0.141,0 0.492,0.211 0.562,0.352 l 0.633,1.546 1.195,2.742 0.07,-0.632 0.141,-4.429 0.07,-1.195 V 68.61 Z m -33.813,0.774 c 0.421,0.562 0.843,1.195 1.336,1.687 h -1.055 c -0.281,0 -0.632,0.352 -0.632,0.632 v 40.282 c -0.563,-3.797 -2.039,-6.96 -4.007,-9.842 -2.46,-3.586 -5.765,-6.608 -8.928,-9.491 -0.773,-0.703 -1.546,-1.335 -2.25,-2.039 a 25.734,25.734 0 0 1 -1.968,-1.968 l -0.07,-0.07 C 57.363,89.348 56.167,88.012 55.324,86.677 54.989,86.007 54.56,85.414 54.245,84.731 53.897,83.977 53.694,83.24 53.637,82.6 v -0.421 c 0,-0.14 0.07,-0.281 0.07,-0.422 0.211,-0.844 0.703,-1.688 1.546,-2.531 0.844,-0.844 2.039,-1.687 3.445,-2.46 0,0 0.211,-0.07 0.422,-0.211 a 19.173,19.173 0 0 1 1.687,-0.844 c 0.844,-0.281 1.617,-0.632 2.46,-0.984 a 58.315,58.315 0 0 1 4.569,-1.406 c 0.352,-0.07 0.703,-0.14 0.984,-0.211 0.281,-0.07 0.562,-0.141 0.914,-0.211 h 0.07 l 0.281,-0.07 c 0.422,-0.07 0.773,-0.141 1.125,-0.211 0.422,-0.07 0.844,-0.141 1.195,-0.211 0.141,-0.07 -0.141,0 0.211,-0.07 l 3.375,-0.562 a 0.55,0.55 0 0 0 0.352,-0.142 z M 69.383,56.307 68.61,54.62 c -0.07,-0.21 -0.422,-0.351 -0.703,-0.351 l -1.828,0.281 c -7.17,0.914 -14.974,3.304 -21.512,6.889 -1.335,0.703 -2.531,1.477 -3.726,2.249 a 37.594,37.594 0 0 0 -3.304,2.531 c -2.039,1.757 -3.796,3.655 -5.132,5.765 -0.281,0.351 -0.492,0.773 -0.703,1.195 -0.281,0.421 -0.492,0.843 -0.703,1.265 -1.054,2.32 -1.757,4.781 -1.828,7.382 v 1.547 c 0.07,0.492 0.07,0.983 0.141,1.546 0.07,0.141 0,0.07 0,0 0.352,2.25 1.054,4.569 2.179,6.959 1.195,2.32 2.812,4.64 4.921,7.1 v 0.07 c 1.265,1.406 2.882,2.883 4.71,4.499 0.07,0.07 0.141,0.212 0.281,0.282 2.179,1.968 4.64,4.147 6.538,6.327 1.898,2.108 3.234,4.147 3.234,5.904 v 0.141 c 0,0.422 0,0.844 -0.07,1.195 -0.141,0.352 -0.211,0.703 -0.422,1.055 -0.281,0.352 -0.562,0.773 -0.984,1.125 -0.492,0.422 -1.054,0.844 -1.687,1.265 -1.406,0.773 -3.023,1.477 -4.78,2.109 -0.352,0.141 -0.703,0.211 -1.055,0.352 -0.352,0.141 -0.703,0.211 -1.055,0.352 -0.211,0.07 -0.422,0.141 -0.703,0.141 -0.21,0.141 -0.492,0.21 -0.773,0.21 a 46.52,46.52 0 0 1 -3.374,0.845 c -0.281,0.07 -0.492,0.07 -0.562,0.14 -1.125,0.141 -2.109,0.281 -2.671,0.281 h -4.85 c -0.492,0 -0.773,0.562 -0.492,0.984 l 2.671,4.008 h 0.07 l 7.733,11.317 v 0.07 l 0.914,1.266 c 0.141,0.141 0.422,0.352 0.633,0.281 l 1.617,-0.281 c 7.452,-1.125 16.31,-3.796 23.27,-8.014 1.336,-0.773 2.601,-1.688 3.796,-2.602 1.125,-0.984 2.25,-1.968 3.164,-3.093 v 0 h 0.07 a 22.86,22.86 0 0 0 2.601,-3.656 c 0.141,-0.211 0.211,-0.492 0.352,-0.772 0.141,-0.281 0.281,-0.563 0.422,-0.774 0.421,-1.124 0.773,-2.319 0.984,-3.444 v 12.584 c 0,0.352 0.351,0.633 0.632,0.633 h 14.833 l -1.265,7.03 -0.494,2.952 c -0.07,0.422 0.211,0.773 0.562,0.773 h 20.175 c 0.281,0 0.562,-0.281 0.633,-0.492 l 0.352,-2.18 2.039,-11.458 4.357,10.825 0.703,1.547 c 0.07,0.211 0.352,0.422 0.562,0.422 h 7.102 c 0.211,0 0.49,-0.211 0.561,-0.422 l 0.705,-1.547 4.568,-11.247 2.18,11.95 0.352,2.109 c 0.07,0.211 0.352,0.492 0.633,0.492 h 20.458 a 0.671,0.671 0 0 0 0.633,-0.773 l -0.633,-3.022 -1.547,-8.155 0.773,1.125 c 0.141,0.141 0.422,0.281 0.633,0.281 l 1.547,-0.211 h 0.07 c 0.984,-0.211 2.037,-0.422 3.092,-0.633 1.055,-0.211 2.109,-0.492 3.164,-0.844 5.625,-1.616 11.248,-4.288 14.693,-8.085 0.492,-0.562 0.914,-1.194 1.336,-1.827 0.42,-0.562 0.771,-1.266 1.123,-1.897 v -0.07 c 0.07,-0.141 0.141,-0.352 0.211,-0.563 l 0.211,-0.632 c 0.281,-1.125 0.492,-2.25 0.492,-3.375 0,-7.592 -4.709,-11.95 -9.139,-16.098 h -0.07 l -0.07,-0.07 c -0.984,-0.914 -1.896,-1.758 -2.672,-2.531 -0.07,-0.07 -0.141,-0.141 -0.211,-0.141 -0.561,-0.633 -1.053,-1.195 -1.475,-1.757 -0.492,-0.563 -0.844,-1.055 -1.055,-1.617 -0.352,-0.633 -0.562,-1.195 -0.422,-1.617 0.141,-0.914 1.055,-1.688 2.109,-2.32 1.193,-0.703 2.6,-1.195 3.584,-1.546 2.883,-1.055 5.695,-1.477 8.646,-1.969 0.422,-0.07 0.703,-0.141 0.844,-0.141 0.352,-0.07 0.633,-0.562 0.422,-0.914 l -1.406,-3.093 h -0.07 l -3.725,-7.663 -0.773,-1.687 c -0.141,-0.211 -0.492,-0.352 -0.703,-0.352 l -1.758,0.211 h -0.07 c -0.914,0.141 -1.898,0.352 -2.953,0.492 -0.984,0.211 -1.967,0.492 -2.951,0.773 -5.133,1.406 -10.193,3.727 -13.85,6.89 -0.281,0.281 -0.562,0.492 -0.844,0.773 l -0.352,0.352 0.422,-1.828 0.984,-4.64 0.281,-1.547 c 0.07,-0.14 -0.07,-0.492 -0.211,-0.632 l -1.266,-0.984 -3.797,-3.023 0.281,-6.749 V 61.58 l 0.07,-1.477 0.07,-0.844 c 0.354,0 0.633,-0.351 0.633,-0.632 l 0.07,-1.688 c 0.07,0 0.211,0 0.281,-0.07 0.211,-0.07 0.492,-0.141 0.703,-0.211 1.195,-0.422 2.18,-1.054 2.883,-1.828 0.07,0 0.141,0 0.211,-0.07 0.141,0 0.281,-0.07 0.352,-0.141 0.633,-0.21 1.266,-0.562 1.758,-1.055 l 0.422,-0.421 c 0.141,-0.141 0.281,-0.281 0.352,-0.421 0.562,-0.844 0.914,-1.828 0.914,-2.883 v -0.211 c 0,-0.281 -0.07,-0.562 -0.141,-0.844 -0.07,-0.281 -0.141,-0.562 -0.211,-0.773 -0.562,-1.335 -1.617,-2.39 -2.953,-3.022 h -0.07 c -0.281,-0.141 -0.633,-0.211 -0.984,-0.281 -0.422,-0.141 -0.773,-0.141 -1.125,-0.141 h -0.07 c -0.562,0 -1.055,0.07 -1.547,0.211 -0.07,0 -0.141,0 -0.281,0.07 -0.281,0.07 -0.633,0.211 -0.912,0.422 V 45.2 c -0.141,0 -0.211,0 -0.354,-0.07 -0.562,-0.07 -1.123,-0.141 -1.686,-0.141 -0.352,0 -0.703,0.07 -1.125,0.141 -0.211,0 -0.422,0 -0.633,0.07 -0.211,0.07 -0.422,0.07 -0.562,0.141 -0.984,0.281 -1.898,0.703 -2.602,1.335 a 1.545,1.545 0 0 0 -0.352,0.282 l -0.352,0.352 c -0.492,0.562 -0.914,1.265 -1.125,1.968 l -0.07,0.07 -0.281,0.281 c -0.352,0.422 -0.633,0.914 -0.914,1.477 -0.07,0.281 -0.141,0.492 -0.211,0.773 l -2.32,-0.07 c -0.281,0 -0.631,0.281 -0.631,0.633 l -0.07,2.32 -0.07,0.984 -0.07,1.828 -0.984,-0.773 V 56.52 c 0,-0.141 -0.141,-0.421 -0.211,-0.492 l -0.984,-0.844 -7.242,-5.765 -1.404,-1.054 c -0.141,-0.141 -0.492,-0.211 -0.703,-0.07 l -1.547,0.914 -7.803,4.78 -1.195,0.773 c -0.141,0.07 -0.352,0.422 -0.352,0.562 v 0.141 l -5.836,3.585 -1.264,0.773 c -0.072,0.07 -0.283,0.422 -0.283,0.562 v 0.141 l -5.201,3.233 -1.195,0.774 c -0.141,0.07 -0.352,0.351 -0.352,0.562 v 0.07 l -2.952,1.757 c 0.07,-0.421 0.07,-0.773 0.07,-1.125 v -0.07 c 0,-1.477 -0.282,-2.953 -0.774,-4.288 -0.141,-0.211 -0.211,-0.422 -0.281,-0.633 A 12.117,12.117 0 0 0 93.565,57.924 C 93.284,57.643 93.003,57.362 92.651,57.151 92.37,56.869 92.018,56.658 91.737,56.447 A 11.014,11.014 0 0 0 85.761,54.69 c -1.546,0 -3.023,0.281 -4.358,0.844 -0.211,0.141 -0.421,0.211 -0.632,0.281 a 12.145,12.145 0 0 0 -2.882,2.109 c -0.281,0.281 -0.493,0.562 -0.774,0.914 -0.281,0.281 -0.492,0.632 -0.703,0.914 -1.055,1.758 -1.757,3.796 -1.757,6.046 0,0.562 0.07,1.125 0.141,1.758 z"
       id="path44"
       inkscape:connector-curvature="0"
       style="fill:#4f5a65" />
    <path
       d="m 176.098,74.726 3.725,7.663 1.547,3.093 -3.443,0.562 c -0.211,0 -0.562,0.07 -0.914,0.141 -0.281,0.07 -0.562,0.141 -0.914,0.211 -1.617,0.352 -3.023,0.773 -4.359,1.195 -0.562,0.211 -1.055,0.422 -1.617,0.704 -0.492,0.21 -0.914,0.421 -1.334,0.632 -1.828,0.984 -2.953,2.039 -3.164,3.023 -0.141,0.562 0.07,1.265 0.492,2.109 0.562,1.055 1.477,2.25 2.742,3.515 l 0.07,0.07 c 0.842,0.844 1.826,1.758 2.811,2.671 4.359,4.008 8.998,8.296 8.998,15.606 0,1.547 -0.281,3.023 -0.914,4.359 -0.561,1.335 -1.334,2.53 -2.318,3.655 -4.57,5.132 -13.568,8.154 -20.598,9.279 l -1.547,0.281 -0.914,-1.336 -1.617,-2.39 2.18,11.178 0.562,3.093 h -20.387 l -0.422,-2.109 -2.602,-14.13 -5.414,13.286 -0.631,1.547 h -7.102 l -0.633,-1.547 -5.271,-12.864 -2.391,13.638 -0.352,2.18 H 90.192 l 0.562,-3.022 1.336,-7.733 H 76.553 V 74.023 h 2.672 c -0.352,-0.281 -0.633,-0.562 -0.984,-0.843 -1.828,-1.898 -3.023,-4.5 -3.023,-7.382 0,-2.882 1.195,-5.483 3.093,-7.382 1.828,-1.828 4.429,-3.022 7.311,-3.022 2.882,0 5.484,1.195 7.381,3.022 1.898,1.898 3.093,4.5 3.093,7.382 0,2.882 -1.195,5.483 -3.093,7.382 -0.281,0.281 -0.562,0.562 -0.914,0.843 h 2.671 v 44.148 l 7.733,-44.5 0.352,-2.109 h 7.944 l 0.633,1.546 11.389,26.574 11.318,-23.832 0.703,-1.406 h 7.31 l 0.352,2.039 8.576,44.077 h 0.281 c 0.773,0 2.391,-0.28 4.289,-0.773 0.352,-0.14 0.703,-0.21 0.984,-0.28 1.688,-0.492 3.305,-1.125 4.498,-1.828 0.844,-0.562 1.406,-0.984 1.688,-1.477 0.211,-0.352 0.281,-0.773 0.281,-1.266 v -0.07 c -0.07,-2.249 -3.586,-5.413 -6.467,-7.943 -1.266,-1.125 -2.461,-2.18 -3.305,-3.234 -2.953,-3.374 -4.5,-6.607 -4.852,-9.63 -0.35,-2.601 0.07,-4.991 1.127,-7.17 0.982,-2.109 2.529,-3.937 4.428,-5.624 4.99,-4.288 12.654,-7.03 19.473,-7.944 l 1.828,-0.281 z M 68.75,56.659 67.906,54.972 66.078,55.253 c -9.913,1.335 -20.949,5.343 -28.19,11.529 -2.742,2.391 -4.991,5.062 -6.397,8.015 -1.476,3.093 -2.109,6.467 -1.617,10.123 0.562,4.358 2.742,8.999 6.959,13.779 1.266,1.476 2.952,3.022 4.851,4.779 4.429,3.938 9.912,8.858 10.053,12.725 v 0.141 c 0,0.914 -0.141,1.758 -0.633,2.531 -0.492,0.843 -1.406,1.757 -2.882,2.601 -1.898,1.125 -4.499,2.109 -7.03,2.883 -0.562,0.141 -1.054,0.281 -1.477,0.422 -2.952,0.772 -5.553,1.265 -6.748,1.265 h -4.851 l 2.742,4.007 7.733,11.318 0.914,1.336 1.617,-0.281 c 10.264,-1.616 23.27,-6.046 29.877,-13.497 1.406,-1.547 2.531,-3.234 3.304,-5.062 a 15.99,15.99 0 0 0 1.195,-6.046 c 0,-10.404 -6.678,-16.591 -13.005,-22.355 a 120.123,120.123 0 0 1 -4.288,-4.078 v -0.07 c -2.039,-2.039 -3.515,-4.007 -4.358,-5.694 -0.773,-1.547 -1.055,-2.812 -0.844,-3.937 0.352,-1.969 2.32,-3.796 5.343,-5.413 a 29.35,29.35 0 0 1 2.109,-1.055 25.522,25.522 0 0 1 2.46,-0.984 c 2.039,-0.773 4.289,-1.406 6.608,-1.898 0.562,-0.14 1.055,-0.21 1.476,-0.281 0.492,-0.07 0.984,-0.211 1.406,-0.281 L 75.78,71.283 74.304,68.19 Z"
       id="path46"
       inkscape:connector-curvature="0"
       style="fill:#2580c4" />
    <path
       d="m 10.894,103.268 h 9.771 v -0.844 h 8.296 v 4.077 c 0.632,-0.07 1.265,-0.141 1.898,0 0.422,0 0.773,0.07 1.125,0.211 0.351,0.07 0.703,0.211 1.054,0.422 a 5.308,5.308 0 0 1 1.828,1.477 c 0,0 0,-0.07 0.07,-0.07 1.406,-1.336 3.233,-2.039 5.202,-2.039 h 0.632 c 2.109,0.141 3.796,1.055 4.991,2.602 1.055,1.405 1.688,3.304 1.688,5.483 0,0.913 -0.07,1.616 -0.211,2.741 h -0.633 l 0.211,0.703 0.281,0.914 -0.633,0.703 c -0.844,0.983 -1.828,1.546 -2.882,1.897 -0.984,0.281 -1.968,0.422 -2.953,0.422 h -0.211 c -1.617,-0.07 -3.163,-0.562 -4.358,-1.406 v 0.984 H 12.439 V 110.859 H 9.066 v -7.592 h 1.828 z M 139.822,52.652 V 52.3 c 0.07,-0.281 0.141,-0.632 0.281,-0.914 0.281,-0.633 0.703,-1.195 1.195,-1.688 a 4.597,4.597 0 0 1 1.688,-2.46 c 0.914,-0.774 2.109,-1.266 3.445,-1.406 0.422,-0.07 0.773,-0.141 1.055,-0.141 0.773,0 1.475,0.141 2.18,0.281 0.771,-0.421 1.615,-0.703 2.6,-0.703 h 0.07 c 0.281,0 0.633,0.07 0.984,0.141 0.351,0.071 0.633,0.141 0.914,0.281 1.688,0.703 2.883,2.249 2.953,4.077 v 0.141 c 0,1.266 -0.562,2.46 -1.477,3.234 a 5.367,5.367 0 0 1 -2.25,1.195 c -0.914,1.125 -2.391,1.897 -4.148,2.108 l -0.07,2.25 -0.633,-0.07 -0.07,1.546 -0.07,1.406 v 0.914 l -0.279,6.679 v 0.421 l 4.076,3.164 1.266,0.984 -0.352,1.617 -0.984,4.569 -0.914,4.218 -3.303,-2.812 -15.607,-13.427 -0.07,1.336 v 0.843 l -0.07,1.266 -0.141,4.288 -0.07,2.109 -2.039,-0.141 -6.889,-0.282 h -0.844 l -1.195,-0.07 -5.201,-0.211 -2.039,-0.07 0.07,-2.039 0.141,-4.359 0.07,-1.266 V 68.54 l 0.07,-1.054 -15.326,9.912 -3.303,2.179 -0.562,-3.937 -0.633,-4.78 -0.211,-1.617 1.477,-0.914 4.569,-2.742 v -0.422 l 1.266,-0.773 5.484,-3.445 v -0.492 l 1.264,-0.773 6.188,-3.796 -0.07,-0.492 1.266,-0.773 7.803,-4.78 1.547,-0.914 1.406,1.055 7.24,5.765 0.984,0.843 v 0.563 l 2.74,2.319 0.07,-1.336 h -0.633 l 0.07,-2.249 0.07,-1.055 0.07,-2.32 2.32,0.141 h 0.561 z m -14.761,8.858 -0.773,-0.633 -0.844,0.633 z"
       id="path48"
       inkscape:connector-curvature="0"
       style="fill:#2580c4" />
    <path
       d="m 174.27,76.483 c 1.266,2.531 2.461,5.132 3.727,7.662 -2.461,0.422 -4.711,0.985 -6.68,1.758 -4.357,1.617 -7.24,3.656 -7.803,6.257 -0.422,2.249 1.055,4.851 4.008,7.874 4.428,4.639 11.107,8.717 11.107,16.59 0,8.506 -12.514,13.287 -21.652,14.763 -1.758,-2.53 -3.445,-5.062 -5.203,-7.592 1.898,0 7.732,-1.266 11.107,-3.304 2.531,-1.477 3.234,-3.164 3.234,-4.922 0,-4.64 -7.803,-9.771 -10.475,-12.864 -12.583,-14.481 4.78,-24.394 18.63,-26.222 z M 66.922,58.416 a 859.698,859.698 0 0 0 5.554,11.529 54.44,54.44 0 0 0 -9.982,2.531 c -6.538,2.391 -10.826,5.554 -11.529,9.35 -0.703,3.445 1.477,7.452 5.906,12.021 6.608,6.818 16.52,12.935 16.52,24.604 0,12.794 -18.629,19.965 -32.268,22.145 a 636.377,636.377 0 0 0 -7.732,-11.318 c 2.812,0 11.528,-1.969 16.52,-4.921 3.726,-2.18 4.851,-4.71 4.851,-7.382 0,-6.959 -11.669,-14.692 -15.607,-19.262 -18.7,-21.792 7.099,-36.484 27.767,-39.297 z m 12.655,18.84 h 13.076 v 54.13 H 79.577 Z m 6.537,-18.629 c 4.288,0 7.874,3.515 7.874,7.874 0,4.288 -3.585,7.873 -7.874,7.873 -4.358,0 -7.874,-3.585 -7.874,-7.873 a 7.862,7.862 0 0 1 7.874,-7.874 z m 19.333,16.099 -11.741,67.417 h 14.973 l 3.938,-22.495 8.576,21.09 h 3.656 l 8.717,-21.301 4.148,22.706 h 15.184 L 140.455,77.609 h -3.586 l -13.777,28.963 -13.568,-31.845 h -4.077 z"
       id="path50"
       inkscape:connector-curvature="0"
       style="fill:#d0d1d3" />
    <path
       d="m 147.064,53.987 c -0.141,0.844 -0.844,1.406 -1.898,1.406 -0.984,0 -2.039,-0.914 -2.109,-1.758 -0.07,-0.913 0.562,-1.546 1.406,-1.757 0,-0.07 0.07,0.492 -0.07,-0.281 -0.07,-0.703 1.969,-2.602 3.586,-2.602 1.617,0 2.037,0.281 2.811,0.773 0.281,-0.703 0.914,-1.195 1.898,-1.195 1.055,0 2.109,0.773 2.109,1.757 0.07,0.984 -1.266,1.757 -1.969,1.757 -0.633,0 -0.422,0 -0.633,-0.07 -0.141,1.265 -2.32,2.18 -3.586,2.18 -1.193,0.002 -1.052,-0.069 -1.545,-0.21 z m -30.3,9.912 6.469,0.281 -0.211,5.343 -6.398,-0.281 z m 7.031,6.468 6.889,0.281 -0.211,5.624 -6.889,-0.281 z m -7.242,-0.281 6.469,0.281 -0.211,5.554 -6.469,-0.281 z m 7.523,-5.905 6.818,0.282 -0.141,5.413 -6.889,-0.281 z m 1.055,-11.529 -7.732,4.78 v 0.492 l -7.453,4.569 0.07,0.562 -6.818,4.147 0.07,0.493 -6.047,3.515 0.703,4.71 26.996,-17.505 25.166,21.652 1.055,-4.64 -5.623,-4.358 v -0.633 l -6.398,-5.413 v -0.632 l -6.748,-5.413 v -0.563 z m 14.48,2.952 7.945,0.352 -0.07,0.984 h -0.633 l -0.211,5.272 -6.68,-0.281 0.211,-5.343 h -0.633 z m 7.032,7.452 -0.281,6.749 -6.469,-5.554 0.07,-1.476 z M 11.316,105.728 h 11.178 v 4.008 H 19.4 v 10.686 h -4.71 v -10.686 h -3.375 v -4.008 z m 29.385,6.397 c 1.336,0 1.547,1.336 1.547,1.546 h -3.094 c 0,-0.21 0.071,-1.546 1.547,-1.546 z m 5.342,3.937 c 0.281,-4.218 -1.687,-7.1 -5.413,-7.1 -3.023,0 -5.764,2.108 -5.764,5.904 0,3.234 2.741,5.976 6.186,5.976 1.617,0 3.937,-0.421 4.499,-1.687 -0.562,-1.828 -0.773,-2.531 -0.773,-2.531 -0.281,-0.07 -1.195,0.703 -2.952,0.703 -1.195,0 -2.18,-0.492 -2.672,-1.125 h 6.89 z M 22.845,104.884 h 4.781 v 4.852 a 5.268,5.268 0 0 1 3.515,-0.844 c 1.898,0.281 3.515,1.616 3.515,4.077 v 7.452 h -4.639 v -6.257 c 0,-0.633 -0.563,-1.195 -1.196,-1.195 -0.703,0 -1.194,0.562 -1.194,1.195 v 6.257 h -4.781 v -15.537 z"
       id="path52"
       inkscape:connector-curvature="0"
       style="fill:#d0d1d3" />
    <path
       d="m 176.098,64.954 v -2.32 h -0.844 v -0.492 h 2.18 v 0.492 h -0.773 v 2.32 z m 1.687,0 v -2.812 h 0.844 l 0.562,2.109 0.561,-2.109 h 0.844 v 2.812 h -0.562 v -2.25 l -0.561,2.25 h -0.562 l -0.562,-2.25 v 2.25 z"
       id="path54"
       inkscape:connector-curvature="0"
       style="fill:#2580c4" />
    <path
       d="m 173.777,75.78 c 1.266,2.601 2.531,5.202 3.797,7.733 -2.461,0.421 -4.711,0.983 -6.68,1.687 -4.428,1.617 -7.311,3.726 -7.803,6.256 -0.422,2.32 1.055,4.921 4.008,7.944 4.428,4.64 11.107,8.717 11.107,16.52 0,8.507 -12.514,13.287 -21.652,14.764 -1.758,-2.531 -3.516,-5.062 -5.203,-7.593 1.898,0 7.662,-1.266 11.107,-3.234 2.461,-1.476 3.164,-3.163 3.234,-4.921 0,-4.64 -7.873,-9.842 -10.475,-12.864 C 142.635,87.52 160,77.679 173.777,75.78 Z M 66.43,57.784 c 1.898,3.796 3.727,7.663 5.625,11.529 -3.656,0.562 -7.03,1.406 -9.983,2.531 -6.537,2.39 -10.826,5.483 -11.6,9.35 -0.632,3.374 1.547,7.381 5.905,11.951 6.679,6.89 16.591,12.935 16.591,24.675 0,12.795 -18.629,19.895 -32.268,22.074 a 642.03,642.03 0 0 1 -7.732,-11.318 c 2.812,0 11.458,-1.898 16.52,-4.921 3.726,-2.18 4.781,-4.71 4.781,-7.312 0.07,-6.96 -11.6,-14.692 -15.536,-19.262 -18.7,-21.793 7.1,-36.556 27.697,-39.297 z m 12.654,18.77 H 92.16 v 54.131 H 79.084 Z m 6.538,-18.63 c 4.359,0 7.874,3.585 7.874,7.874 a 7.861,7.861 0 0 1 -7.874,7.874 c -4.288,0 -7.873,-3.515 -7.873,-7.874 0,-4.288 3.585,-7.874 7.873,-7.874 z m 19.403,16.169 -11.811,67.347 h 14.973 l 4.008,-22.425 8.576,21.09 h 3.656 l 8.646,-21.371 4.217,22.706 h 15.186 L 140.033,76.976 h -3.584 L 122.67,105.939 109.102,74.093 Z"
       id="path56"
       inkscape:connector-curvature="0"
       style="fill:#ffffff" />
    <path
       d="m 146.643,53.354 c -0.141,0.774 -0.844,1.336 -1.898,1.336 -1.054,0 -2.109,-0.844 -2.18,-1.757 0,-0.914 0.562,-1.546 1.477,-1.687 0,-0.141 0.07,0.492 -0.07,-0.281 -0.07,-0.773 1.969,-2.601 3.516,-2.601 1.615,0 2.109,0.281 2.881,0.773 0.211,-0.703 0.914,-1.266 1.898,-1.266 0.984,0 2.039,0.844 2.109,1.828 0,0.984 -1.266,1.758 -1.969,1.758 -0.703,0 -0.422,-0.07 -0.633,-0.07 -0.141,1.195 -2.318,2.179 -3.584,2.179 -1.196,-0.001 -1.055,-0.071 -1.547,-0.212 z m -30.301,9.843 6.469,0.281 -0.211,5.414 -6.467,-0.282 z m 7.031,6.537 6.889,0.281 -0.211,5.554 -6.889,-0.281 z m -7.24,-0.351 6.467,0.281 -0.211,5.624 -6.467,-0.281 z m 7.451,-5.835 6.889,0.281 -0.211,5.343 -6.818,-0.281 z m 1.125,-11.529 -7.805,4.78 v 0.493 l -7.381,4.569 v 0.492 l -6.748,4.148 v 0.492 l -5.975,3.515 0.631,4.78 27.066,-17.575 25.168,21.723 0.982,-4.64 -5.553,-4.429 v -0.562 l -6.469,-5.483 0.07,-0.633 -6.748,-5.343 v -0.562 z m 14.48,2.882 7.875,0.352 v 1.054 l -0.703,-0.07 -0.141,5.273 -6.68,-0.281 0.211,-5.272 h -0.633 z m 6.961,7.452 -0.211,6.749 -6.469,-5.484 0.07,-1.546 z M 10.894,105.095 h 11.177 v 4.008 h -3.093 v 10.685 h -4.71 v -10.685 h -3.375 v -4.008 z m 29.385,6.327 c 1.335,0 1.476,1.406 1.476,1.617 h -3.022 c 0,-0.211 0.07,-1.617 1.546,-1.617 z m 5.343,4.007 c 0.281,-4.218 -1.757,-7.17 -5.483,-7.17 -3.023,0 -5.765,2.179 -5.765,5.976 0,3.233 2.742,5.976 6.256,5.905 1.617,0 3.867,-0.353 4.429,-1.617 a 107.379,107.379 0 0 0 -0.703,-2.531 c -0.352,-0.141 -1.195,0.633 -2.953,0.633 -1.195,0 -2.25,-0.422 -2.671,-1.125 h 6.889 v -0.071 z M 22.423,104.252 h 4.71 v 4.851 c 1.125,-0.703 2.39,-0.984 3.515,-0.844 1.969,0.211 3.585,1.617 3.585,4.077 v 7.451 h -4.64 v -6.256 c 0,-0.703 -0.562,-1.195 -1.195,-1.195 -0.703,0 -1.265,0.492 -1.265,1.195 v 6.256 h -4.71 z"
       id="path58"
       inkscape:connector-curvature="0"
       style="fill:#ffffff" />
  </g>
</svg>
